<svg xmlns="http://www.w3.org/2000/svg" viewBox="0 0 390.41 390.41"><defs><style>.cls-1{fill:#f15d43;}.cls-2{fill:#fff;}</style></defs><g id="Layer_2" data-name="Layer 2"><g id="Layer_1-2" data-name="Layer 1"><circle class="cls-1" cx="195.21" cy="195.21" r="195.21"/><polygon class="cls-2" points="127.57 199.36 152.49 187.13 152.49 160.76 127.23 147.41 103.21 160.87 103.21 187.13 127.57 199.36"/><polygon class="cls-2" points="180.67 199.36 205.59 187.13 205.59 160.76 180.34 147.41 156.31 160.87 156.31 187.13 180.67 199.36"/><polygon class="cls-2" points="153.38 156.94 178.3 144.7 178.3 118.34 153.04 104.99 129.01 118.45 129.01 144.7 153.38 156.94"/><polygon class="cls-2" points="127.57 285.43 152.49 273.19 152.49 246.82 127.23 233.47 103.21 246.93 103.21 273.19 127.57 285.43"/><polygon class="cls-2" points="180.67 285.43 205.59 273.19 205.59 246.82 180.34 233.47 156.31 246.93 156.31 273.19 180.67 285.43"/><polygon class="cls-2" points="153.38 243 178.3 230.77 178.3 204.4 153.04 191.05 129.01 204.51 129.01 230.77 153.38 243"/><polygon class="cls-2" points="209.18 243.88 234.1 231.64 234.1 205.28 208.84 191.93 184.82 205.39 184.82 231.64 209.18 243.88"/><polygon class="cls-2" points="262.29 243.88 287.21 231.64 287.21 205.28 261.95 191.93 237.92 205.39 237.92 231.64 262.29 243.88"/><polygon class="cls-2" points="234.99 201.46 259.91 189.22 259.91 162.85 234.65 149.5 210.63 162.96 210.63 189.22 234.99 201.46"/></g></g></svg>