<svg xmlns="http://www.w3.org/2000/svg" viewBox="0 0 390.41 390.41"><defs><style>.cls-1{fill:#0f3041;}.cls-2{fill:#fff;}</style></defs><g id="Layer_2" data-name="Layer 2"><g id="Layer_1-2" data-name="Layer 1"><circle class="cls-1" cx="195.21" cy="195.21" r="195.21"/><path class="cls-2" d="M275.4,218.56c-1.65,0-1.95-.06-2.75-1.51-1.33-2.4-3.74-6.74-4.76-8.54-1.45-2.55-.2-3.51.23-4.2a11.19,11.19,0,0,0,.07-11.58c-.44-.74-1.65-1.87-.52-3.92.83-1.51,3.67-6.61,5.09-9.14.89-1.62,1.07-1.31,2.64-1.31a11.21,11.21,0,1,0-8.24-3.64c.82.89,1.53,1.43.72,2.91-1.22,2.22-3.44,6.26-4.38,7.85-1.33,2.24-3.66,1.8-4.91,1.8a11.16,11.16,0,0,0-10.11,6.43,2.92,2.92,0,0,1-2.56,1.91h-4.49c-1.85,0-2.56-.93-3.48-2.59a11.15,11.15,0,0,0-9.76-5.75c-2.69,0-3.1.19-4.07-1.49-2.23-3.83-7.09-12.2-7.61-13.18a4.27,4.27,0,0,1,.31-3.77,11.14,11.14,0,0,0,.79-11.91c-1.06-1.94-1.71-2.29-.67-4,.69-1.14,1.57-2.62,2.15-3.59a3.54,3.54,0,0,1,3.8-1.49,11.18,11.18,0,1,0-8.79-5.55c1,1.79,1.75,2.25.51,4.36-.65,1.1-1.42,2.38-2,3.26-1.18,1.8-3.51,1.21-4.82,1.21a11.17,11.17,0,0,0-10.13,6.47,4.23,4.23,0,0,1-3.24,2.08h-15a3.38,3.38,0,0,1-3.36-2.23A11.16,11.16,0,0,0,166,151.09c-.8,0-2.8-.58-3.41-1.67l-1.85-3.35a4,4,0,0,1,.5-4.47,11.14,11.14,0,0,0-.56-13.23c-.52-.64-1.26-2.56-.59-3.71,1.29-2.22,3.31-5.64,4-6.68a3.08,3.08,0,0,1,3.29-1.34,11.06,11.06,0,0,0,7.9-1.25A11.18,11.18,0,1,0,160,111.3c.31.54.65,1.72-.32,3.79-.64,1.36-2.84,5-4.28,7.26-1.6,1.64-2.13,1.84-3.47,1.84a11.17,11.17,0,0,0-9.76,5.73c-.88,1.59-1.07,2.31-3.38,2.31H133.6a3.68,3.68,0,0,1-3.58-2.48,11.19,11.19,0,1,0-.42,10.38c1.08-1.86,1.41-2.64,3.26-2.64h5.62c2.43,0,2.78,1.27,3,1.87a11.16,11.16,0,0,0,10.44,7.19,3.87,3.87,0,0,1,4,1.73,32.63,32.63,0,0,1,1.76,2.94,4.68,4.68,0,0,1-.49,4.12,11.18,11.18,0,0,0-.68,12.88,4.23,4.23,0,0,1,.27,4.7c-.89,1.67-4.94,8.62-7.11,12.35a5,5,0,0,1-4.25,2,11.18,11.18,0,0,0-9.8,5.81c-.59,1.08-1,2.53-3.7,2.53H128c-2.33,0-2.9-2.1-3.47-3a11.17,11.17,0,1,0,.43,11c.7-1.34,1-2.71,3-2.71h3.39a4.71,4.71,0,0,1,4.12,2.76,11.19,11.19,0,0,0,9.92,6,4.58,4.58,0,0,1,4.47,2c1,1.54,4.79,8.19,6.91,11.93,1.42,2.49.92,2.81-.28,4.7a11.15,11.15,0,0,0-.57,10.92c.46.92,1.73,2.15.45,4.65-.64,1.24-1.41,2.52-2,3.49-1.18,1.89-2.26,1.2-3.61,1.07a11.16,11.16,0,0,0-11.22,6.42,3.91,3.91,0,0,1-3.51,2.38H133.6c-1.83,0-3.07-1.53-3.78-2.88a11.18,11.18,0,1,0-.22,10.79c1-1.68,2.23-2.64,3.68-2.64h2.86A4.56,4.56,0,0,1,140,265.1a11.19,11.19,0,0,0,9.29,5.58c2.25.08,2.53,0,3.72,1.87l.94,1.69c.84,1.65,0,2.53-1.36,4.87A11.18,11.18,0,1,0,167.86,275a11,11,0,0,0-5.23-1.49c-2.1-.06-3.17-.08-3.85-1.43l-1-1.88c-.83-1.32-.9-1.71.76-3.84a11.16,11.16,0,0,0,.87-12.46,3.67,3.67,0,0,1-.49-4c.54-1,1.4-2.45,2.09-3.57.89-1.44,1.92-.93,5-.93a11.15,11.15,0,0,0,10.13-6.48c.31-.65.62-2.08,2.61-2.08H195c1.18,0,2.34,1.43,2.65,2.1a11.17,11.17,0,0,0,10.12,6.46c.71,0,2.12-.3,3,1.38.42.84,1.25,2.32,2,3.59a3.78,3.78,0,0,1-.34,4.23,11.17,11.17,0,1,0,19.71,10.08,2.73,2.73,0,0,1,2.59-2.13H239a3.35,3.35,0,0,1,2.55,2,11.17,11.17,0,1,0,.81-8.93c-.8,1.47-1.31,1.7-2.92,1.7h-5c-2.65,0-2.9-1.31-3.25-1.91a11.15,11.15,0,0,0-9.66-5.57c-2.45,0-2.89.34-3.91-1.51-.6-1.09-1.33-2.41-1.86-3.3a2.86,2.86,0,0,1,.58-3.6,11.15,11.15,0,0,0,.42-13.83c-.43-.58-1.66-1.53-.34-3.56,1-1.56,5.54-9.5,7.58-13.08.75-1.33,2.24-1.3,4.18-1.3a11.18,11.18,0,0,0,10.2-6.6,3,3,0,0,1,2.75-2.17h4.19c1.75,0,2.52,1,3.15,2.37a11.2,11.2,0,0,0,10.11,6.4c1.25,0,3.44-.82,4.76,1.54.89,1.58,3,5.36,4.29,7.69.9,1.63.61,2.09-.65,3.53a11,11,0,0,0-2.77,7.34,11.18,11.18,0,1,0,11.18-11.18Zm-56-10.16c-.66,1-5.11,8.79-7.37,12.74-1.33,2.32-2.66,1.9-4.22,1.9a11.16,11.16,0,0,0-10,6.28c-.35.72-.9,2.27-2.74,2.27H178.77c-1.78,0-2.25-1.18-2.72-2.17A11.17,11.17,0,0,0,166,223c-1.09,0-3.21.47-4.54-1.95s-7-12.13-7-12.13c-1.1-1.52-.78-2.69.33-4.35a11.13,11.13,0,0,0-.25-12.65,3.27,3.27,0,0,1-.32-4.07c2.1-3.73,6.15-10.87,7.21-12.44a4.83,4.83,0,0,1,4.58-2,11.14,11.14,0,0,0,10-6.15,3.69,3.69,0,0,1,3.87-2.4h14.83c1.41,0,2.76,1.51,3.1,2.22a11.16,11.16,0,0,0,10.06,6.33c1,0,3.1-.1,4.11,1.68.75,1.35,5.38,9.34,7.57,13.13a3.7,3.7,0,0,1-.19,3.47,11.13,11.13,0,0,0-.5,12.76C219.26,205.23,220.27,207,219.38,208.4Z"/><path class="cls-2" d="M174.27,162.27a8.15,8.15,0,1,1-8.15-8.15A8.15,8.15,0,0,1,174.27,162.27Z"/><path class="cls-2" d="M213.54,261a8.15,8.15,0,1,1,8.15,8.15A8.15,8.15,0,0,1,213.54,261Z"/><path class="cls-2" d="M228,143.73a8.15,8.15,0,1,1,3-11.14A8.16,8.16,0,0,1,228,143.73Z"/><path class="cls-2" d="M160.23,135.37a8.15,8.15,0,1,1-8.14-8.15A8.14,8.14,0,0,1,160.23,135.37Z"/><path class="cls-2" d="M145.77,252.45a8.15,8.15,0,1,1-3,11.14A8.15,8.15,0,0,1,145.77,252.45Z"/><path class="cls-2" d="M174.27,234.23a8.15,8.15,0,1,1-8.15-8.15A8.15,8.15,0,0,1,174.27,234.23Z"/><path class="cls-2" d="M216.1,162.27a8.15,8.15,0,1,1-8.15-8.15A8.15,8.15,0,0,1,216.1,162.27Z"/><path class="cls-2" d="M216.1,234.23a8.15,8.15,0,1,1-8.15-8.15A8.15,8.15,0,0,1,216.1,234.23Z"/><path class="cls-2" d="M153.71,198.46a8.15,8.15,0,1,1-8.15-8.15A8.15,8.15,0,0,1,153.71,198.46Z"/><path class="cls-2" d="M123.31,198.46a8.15,8.15,0,1,1-8.15-8.15A8.15,8.15,0,0,1,123.31,198.46Z"/><path class="cls-2" d="M128.23,259.51a8.15,8.15,0,1,1-8.15-8.15A8.15,8.15,0,0,1,128.23,259.51Z"/><path class="cls-2" d="M236.5,198.46a8.16,8.16,0,1,1-8.16-8.15A8.16,8.16,0,0,1,236.5,198.46Z"/><path class="cls-2" d="M266.9,198.46a8.16,8.16,0,1,1-8.15-8.15A8.15,8.15,0,0,1,266.9,198.46Z"/><path class="cls-2" d="M283.71,229.74a8.16,8.16,0,1,1-8.15-8.15A8.15,8.15,0,0,1,283.71,229.74Z"/><path class="cls-2" d="M283.71,167.18a8.16,8.16,0,1,0-8.15,8.15A8.15,8.15,0,0,0,283.71,167.18Z"/><path class="cls-2" d="M165.76,98.65a8.15,8.15,0,1,1-3,11.14A8.15,8.15,0,0,1,165.76,98.65Z"/><path class="cls-2" d="M128.23,134.55a8.15,8.15,0,1,1-8.15-8.15A8.15,8.15,0,0,1,128.23,134.55Z"/><path class="cls-2" d="M166.5,277.64a8.15,8.15,0,1,0,3,11.14A8.15,8.15,0,0,0,166.5,277.64Z"/><path class="cls-2" d="M260.47,261a8.16,8.16,0,1,1-8.15-8.16A8.15,8.15,0,0,1,260.47,261Z"/></g></g></svg>