<svg xmlns="http://www.w3.org/2000/svg" viewBox="0 0 390.41 390.41"><defs><style>.cls-1{fill:#f1e4c4;}.cls-2{fill:#fff;}</style></defs><g id="Layer_2" data-name="Layer 2"><g id="Layer_1-2" data-name="Layer 1"><circle class="cls-1" cx="195.21" cy="195.21" r="195.21"/><path class="cls-2" d="M142.64,266.79H87.28L59.61,218.85l27.67-47.94h55.36l27.67,47.94Zm-53-4.06H140.3l25.33-43.88L140.3,175H89.62L64.29,218.85Z"/><path class="cls-2" d="M221.65,219.5H166.3l-27.68-47.94,27.68-47.93h55.35l27.67,47.93Zm-53-4.05h50.67l25.33-43.89-25.33-43.88H168.64L143.3,171.56Z"/><path class="cls-2" d="M179.31,125.65a12.55,12.55,0,1,1-12.55-12.54A12.55,12.55,0,0,1,179.31,125.65Z"/><path class="cls-2" d="M232.18,125.65a12.54,12.54,0,1,1-12.54-12.54A12.54,12.54,0,0,1,232.18,125.65Z"/><path class="cls-2" d="M154.07,172.72a12.55,12.55,0,1,1-12.55-12.54A12.54,12.54,0,0,1,154.07,172.72Z"/><path class="cls-2" d="M302,264.87H246.63L219,216.93,246.63,169H302l27.68,47.93Zm-53-4.05h50.67L325,216.93l-25.34-43.88H249l-25.33,43.88Z"/><path class="cls-2" d="M259.65,171a12.55,12.55,0,1,1-12.55-12.55A12.55,12.55,0,0,1,259.65,171Z"/><path class="cls-2" d="M312.52,171A12.55,12.55,0,1,1,300,158.48,12.55,12.55,0,0,1,312.52,171Z"/><path class="cls-2" d="M339.86,215a12.54,12.54,0,1,1-12.54-12.54A12.54,12.54,0,0,1,339.86,215Z"/><path class="cls-2" d="M312.52,262.85A12.55,12.55,0,1,1,300,250.3,12.55,12.55,0,0,1,312.52,262.85Z"/><path class="cls-2" d="M261,262.85a12.55,12.55,0,1,1-12.55-12.55A12.55,12.55,0,0,1,261,262.85Z"/><path class="cls-2" d="M234.4,218.09a12.54,12.54,0,1,1-12.54-12.54A12.54,12.54,0,0,1,234.4,218.09Z"/><path class="cls-2" d="M292.18,247.89H256.44l-17.87-31,17.87-31h35.74l17.87,31Zm-33.89-3.22h32l16-27.74-16-27.73h-32l-16,27.73Z"/><path class="cls-2" d="M211.84,202.52H176.1l-17.87-31,17.87-30.95h35.74l17.88,30.95ZM178,199.3h32l16-27.74-16-27.73H178l-16,27.73Z"/><path class="cls-2" d="M133.56,251.06H97.82l-17.88-31,17.88-30.95h35.74l17.87,30.95Zm-33.89-3.22h32l16-27.74-16-27.73h-32l-16,27.73Z"/><path class="cls-2" d="M100.3,172.94a12.55,12.55,0,1,1-12.55-12.55A12.54,12.54,0,0,1,100.3,172.94Z"/><circle class="cls-2" cx="140.63" cy="264.76" r="12.54"/><path class="cls-2" d="M100.3,264.76a12.55,12.55,0,1,1-12.55-12.54A12.54,12.54,0,0,1,100.3,264.76Z"/><path class="cls-2" d="M75.63,218.85a12.54,12.54,0,1,1-12.54-12.54A12.53,12.53,0,0,1,75.63,218.85Z"/><path class="cls-2" d="M180.52,216.93c0,8.48-4.08,12.55-12.55,12.55a12.55,12.55,0,1,1,12.55-12.55Z"/></g></g></svg>