<svg xmlns="http://www.w3.org/2000/svg" viewBox="0 0 390.41 390.41"><defs><style>.cls-1{fill:#6bad7e;}.cls-2{fill:#fff;}</style></defs><g id="Layer_2" data-name="Layer 2"><g id="Layer_1-2" data-name="Layer 1"><circle class="cls-1" cx="195.21" cy="195.21" r="195.21"/><polygon class="cls-2" points="116.66 274.07 104.16 271.13 138.2 126.2 287.95 161.37 285.02 173.88 147.77 141.64 116.66 274.07"/><path class="cls-2" d="M184.94,143.77A43.1,43.1,0,1,1,152.84,92,43.1,43.1,0,0,1,184.94,143.77Z"/><path class="cls-2" d="M136.68,278.77a27,27,0,1,1-20.1-32.44A27,27,0,0,1,136.68,278.77Z"/><path class="cls-2" d="M306.28,172.28a27,27,0,1,1-20.11-32.45A27,27,0,0,1,306.28,172.28Z"/></g></g></svg>