<svg xmlns="http://www.w3.org/2000/svg" viewBox="0 0 390.41 390.41"><defs><style>.cls-1{fill:#118586;}.cls-2{fill:#fff;}</style></defs><g id="Layer_2" data-name="Layer 2"><g id="Layer_1-2" data-name="Layer 1"><circle class="cls-1" cx="195.21" cy="195.21" r="195.21"/><path class="cls-2" d="M300,149a15.62,15.62,0,0,0-18.13-10.56L263.37,122a15.36,15.36,0,0,0-.74-4.65,15.61,15.61,0,0,0-29.75,0l-19.35,6.14a15.6,15.6,0,0,0-15.69-3.79,17.21,17.21,0,0,0-3.82,1.81l-15.72-14a15.63,15.63,0,0,0-20.2-17.19A15.61,15.61,0,0,0,147.54,102l-22.67,7.16a15.62,15.62,0,0,0-23.8,17.54,15.35,15.35,0,0,0,3.25,5.72l-5.13,22a15.63,15.63,0,0,0,9.57,29.62l18.18,16.18a15.52,15.52,0,0,0,.35,8,15.68,15.68,0,0,0,4.75,7.11L127,236.94h-.1a15.63,15.63,0,0,0,9.44,29.81l.09,0L153,281.45a15.33,15.33,0,0,0,.23,8.53,15.62,15.62,0,0,0,30.13-1.26L206,281.55a15.62,15.62,0,0,0,22-22.16L233.43,236c.07,0,.09,0,.13,0a15.65,15.65,0,0,0,10.89-15.83l21.35-6.78a15.64,15.64,0,0,0,23.61-17.7,15.88,15.88,0,0,0-3.07-5.49l5.2-22.2A15.65,15.65,0,0,0,300,149ZM269.8,185.45A15.68,15.68,0,0,0,258.92,199l-24.1,7.62a15.4,15.4,0,0,0-9.23-.87l-19.42-17.28a16.19,16.19,0,0,0-.71-5,15.44,15.44,0,0,0-5.1-7.43l6.17-26.39c.25-.09.51-.12.74-.19a15.61,15.61,0,0,0,10.34-10.82l18.69-5.94a15.57,15.57,0,0,0,16.13,4.22,13.07,13.07,0,0,0,2.71-1.15l15,13.37a15.54,15.54,0,0,0,5.58,17.08L271.35,185a12.67,12.67,0,0,0-1.55.41Zm-57,69.28c-.35.1-.73.17-1.09.29a15.64,15.64,0,0,0-10.53,11.47l-22.64,7.17A15.69,15.69,0,0,0,164,270.18L146.9,254.93a15.47,15.47,0,0,0-.42-7.82,15.82,15.82,0,0,0-4.14-6.61l5.2-22.33a15.53,15.53,0,0,0,9.89-11.24l22.68-7.17a15.59,15.59,0,0,0,15.17,3.33c.39-.13.74-.26,1.1-.42L213.53,218a15.64,15.64,0,0,0,4.56,14.43ZM120.18,164.1a15.61,15.61,0,0,0-5.29-7.62l4.49-19.22a7,7,0,0,0,1.29-.36,15.6,15.6,0,0,0,10.82-13.27l21.16-6.72a15.48,15.48,0,0,0,14.92,3.1l.81-.29L187,136.36a18.07,18.07,0,0,0,.63,2.88,15.93,15.93,0,0,0,3.06,5.49l-6.84,29.35a15.55,15.55,0,0,0-8,8.95l-24.58,7.75a15.64,15.64,0,0,0-13.7-2.2l-17.28-15.37a15.24,15.24,0,0,0-.1-9.11Z"/></g></g></svg>