<svg xmlns="http://www.w3.org/2000/svg" viewBox="0 0 933.44 581.76"><defs><style>.cls-1{fill:#e0e1e2;}.cls-17,.cls-18,.cls-2,.cls-7{fill:none;stroke-linecap:round;stroke-linejoin:round;stroke-width:5.6px;}.cls-17,.cls-2{stroke:#333;}.cls-3{fill:#c8c8c8;}.cls-4{fill:#acacac;}.cls-5{fill:#ddd;}.cls-6{fill:#04cae4;}.cls-7{stroke:#00edff;}.cls-8{fill:#d6d6d6;}.cls-9{fill:#c2c2c2;}.cls-10{fill:#e6e6e6;}.cls-11,.cls-12{fill:#333;}.cls-12,.cls-17{fill-rule:evenodd;}.cls-13{fill:#ff7abe;}.cls-14{fill:#fbbc00;}.cls-15{fill:#fbd747;}.cls-16{fill:#fff09b;}.cls-18{stroke:#949494;}.cls-19{fill:#da325f;}.cls-20{fill:#ff52ab;}</style></defs><g id="Layer_2" data-name="Layer 2"><g id="Illustration"><ellipse class="cls-1" cx="452.5" cy="350.89" rx="412.84" ry="41.93"/><path class="cls-2" d="M770,320.55l-7.47,32.34,20-.39c6.86-.47,13.13,2.83,15.16,9.39"/><path class="cls-2" d="M635.31,211.59,604.93,225l-2.36-19.87a14.79,14.79,0,0,0-13-13"/><path class="cls-3" d="M802.41,142.82C792,147.4,753.25,168,741.75,163.12v0a4.86,4.86,0,0,1-2.75-2.66c-4.36-10.55,14.35-15.9,14.35-15.9S903.9,76.73,919.82,68.91c0,0,6.26-2.86,9.55,2.34,1.12,1.81,1.55,5.17,1.07,9.55-1.63,16.34-15.29,46.41-48.27,59.13C840.4,156,814,137.71,802.41,142.82Z"/><path class="cls-4" d="M802.41,142.82C792,147.4,753.25,168,741.75,163.12v0a3.82,3.82,0,0,1-.24-.54c-3.76-10.78,15.21-15.07,15.21-15.07S900.84,134,927.22,81.38a10.27,10.27,0,0,1,3.22-.58c-1.63,16.34-15.29,46.41-48.27,59.13C840.4,156,814,137.71,802.41,142.82Z"/><path class="cls-5" d="M799.76,128.61l-2.5-3.29,125.25-59s5.41,1.21,4,2.36C899.45,90.44,799.76,128.61,799.76,128.61Z"/><path class="cls-2" d="M919.82,68.89c-15.92,7.84-166.48,75.64-166.48,75.64s-18.7,5.36-14.34,15.9c5.14,12.44,51.81-12.51,63.43-17.6s38,13.18,79.74-2.91,52.57-60.1,47.19-68.66C926.08,66.05,919.82,68.89,919.82,68.89Z"/><path class="cls-6" d="M742.33,172.39l19.92-9.07c5.44-2.49,8-9.45,5.81-15.55s-8.47-9-13.92-6.54l-23.06,10.52a56.42,56.42,0,1,0,11.25,20.64ZM671.65,215.7a31.92,31.92,0,1,1,43.7-11.3A31.93,31.93,0,0,1,671.65,215.7Z"/><path class="cls-2" d="M742.33,172.39l19.92-9.07c5.44-2.49,8-9.45,5.81-15.55s-8.47-9-13.92-6.54l-23.06,10.52a56.42,56.42,0,1,0,11.25,20.64Zm-70,42.16a30.59,30.59,0,1,1,41.88-10.83A30.59,30.59,0,0,1,672.33,214.55Z"/><path class="cls-7" d="M652.72,161.87a43.9,43.9,0,0,1,61.44-8.8"/><path class="cls-8" d="M802.69,143.07c-2.08,11.2-13.3,53.63-5.91,63.71h0a4.77,4.77,0,0,0,3.22,2.06c11.27,1.84,12.2-17.59,12.2-17.59S843.85,29.17,847.83,11.89c0,0,1.35-6.74-4.46-8.76-2-.68-5.39-.33-9.54,1.13-15.54,5.33-41.69,25.5-46.54,60.51C781.18,109.1,805,130.59,802.69,143.07Z"/><path class="cls-9" d="M802.69,143.07c-2.08,11.2-13.3,53.63-5.91,63.71h0a5,5,0,0,0,.58.1c11.35,1.21,11.19-18.24,11.19-18.24S774.12,44.05,834,7.54a10.49,10.49,0,0,0-.17-3.28c-15.54,5.33-41.69,25.5-46.54,60.51C781.18,109.1,805,130.59,802.69,143.07Z"/><path class="cls-10" d="M810.75,176.78,816,180,849.72,8.68s-2.42-5-3.21-3.33C831.52,36.64,810.75,176.78,810.75,176.78Z"/><path class="cls-2" d="M843.37,3.14C833.8-.15,793.43,20.43,787.3,64.76s17.7,65.84,15.38,78.3-15.94,63.61-2.66,65.77c11.26,1.84,12.21-17.59,12.21-17.59S843.85,29.18,847.85,11.89C847.85,11.89,849.18,5.15,843.37,3.14Z"/><path class="cls-6" d="M745.43,223.76a56.47,56.47,0,1,0,64.86-9.2l5-24.85c1.17-5.87-3.1-11.25-9.55-12.06s-12.63,3.35-13.81,9.2l-4.28,21.47A56.26,56.26,0,0,0,745.43,223.76Zm17.19,18.14a31.92,31.92,0,1,1-1,45.13A31.93,31.93,0,0,1,762.62,241.9Z"/><path class="cls-2" d="M745.43,223.76a56.47,56.47,0,1,0,64.86-9.2l5-24.85c1.17-5.87-3.1-11.25-9.55-12.06s-12.63,3.35-13.81,9.2l-4.28,21.47A56.26,56.26,0,0,0,745.43,223.76Zm18.11,19.1a30.59,30.59,0,1,1-1,43.25A30.6,30.6,0,0,1,763.54,242.86Z"/><path class="cls-7" d="M741.28,263.6a43.9,43.9,0,0,1,45.28-42.45"/><path class="cls-11" d="M887.74,105c2.89,6.31-.26,13-6.57,15.85l-3.64,1.66c-6.31,2.9-13.08.8-16-5.51l-1.29-2.82a1.7,1.7,0,0,1,.84-2.26l23.08-10.58a1.69,1.69,0,0,1,2.26.84Z"/><path class="cls-12" d="M898.3,93.14a4.14,4.14,0,1,1-5.48-2A4.13,4.13,0,0,1,898.3,93.14Z"/><path class="cls-12" d="M850.17,115.2a4.13,4.13,0,1,1-5.48-2A4.13,4.13,0,0,1,850.17,115.2Z"/><path class="cls-13" d="M856.51,127.94c1,2.08-.79,4.92-3.9,6.34s-6.4.89-7.35-1.18.8-4.92,3.91-6.34S855.56,125.86,856.51,127.94Z"/><path class="cls-13" d="M910.55,103.18c1,2.07-.79,4.91-3.9,6.33s-6.4.9-7.35-1.18.8-4.91,3.9-6.34S909.6,101.1,910.55,103.18Z"/><polyline class="cls-2" points="525.3 270.84 538.02 326.56 557.49 325.22"/><polyline class="cls-2" points="441.58 277.18 454.29 332.91 473.77 331.57"/><path class="cls-2" d="M378.09,124.48c3.17,17.45-7.59,31.58-15.53,40.32A14,14,0,0,0,365.3,186l20.05,11.39a5.6,5.6,0,0,1,.2,9.62l-8.84,5.54"/><path class="cls-14" d="M401.31,256.15l.16.94,1.48,8.4c2.65,15-6.64,29.18-20.72,31.66s-27.61-7.67-30.26-22.67l-1.64-9.34Z"/><path class="cls-15" d="M535.38,48.39S563.77,197.2,567.57,231c1.76,15.45-10.62,37.57-45,43L516.27,275l-57.34,10.11-50.93,9-25.52,4.5c14.09-2.49,23.38-16.66,20.73-31.66l-2.4-13.62-.17-.94-2.23-12.68L396,226.16,370.74,82.8C368.7,71.27,375.48,55.06,387,53L510.83,31.19A21.19,21.19,0,0,1,535.38,48.39Z"/><path class="cls-16" d="M429,248.3c-37.55-30.08-54.63-178-51.51-188.75C380.74,48.5,432,45.1,432,45.1l52.35-9.23,33.51-3.71c4.46-.49,12,3.69,14,7.73l7.63,20.69,24.85,156.15C568.25,250.42,458.17,271.64,429,248.3Z"/><path class="cls-2" d="M522.35,272.44c34.34-5.38,46.72-27.49,45-42.95-3.8-33.76-32.19-182.57-32.19-182.57a21.19,21.19,0,0,0-24.55-17.19L386.75,51.56a21.19,21.19,0,0,0-17.19,24.55l26.2,148.58,2.39,13.57"/><polyline class="cls-2" points="398.15 238.26 400.38 250.94 400.55 251.88"/><path class="cls-2" d="M522.35,272.44,516,273.56l-57.34,10.11-50.93,9-25.51,4.5c-14,2.48-26.69-2.45-29.34-17.45l-2.56-14.56,51-9"/><path class="cls-2" d="M400.55,251.88l2.4,13.61c2.65,15-6.64,29.18-20.72,31.66"/><line class="cls-2" x1="421.68" y1="171.17" x2="537.49" y2="150.74"/><line class="cls-2" x1="424.93" y1="189.63" x2="540.75" y2="169.21"/><line class="cls-2" x1="428.19" y1="208.1" x2="544" y2="187.68"/><line class="cls-2" x1="431.44" y1="226.56" x2="547.26" y2="206.14"/><line class="cls-2" x1="452.62" y1="241.87" x2="532.59" y2="227.77"/><path class="cls-17" d="M497.11,89.9c-.74-4.8,1.77-9.5,7.33-10.48s9.52,2.52,10.48,7.34"/><path class="cls-17" d="M488.47,100.61c1.55,9.71-5.36,16.25-13.71,17.72s-17.11-2.43-18.95-12"/><path class="cls-17" d="M426.21,102.4c-.74-4.8,1.77-9.5,7.34-10.48s9.52,2.52,10.48,7.34"/><path class="cls-13" d="M441.46,119.81c.82,4.68-4.18,9.47-11.19,10.71s-13.35-1.56-14.17-6.24,4.18-9.48,11.18-10.71S440.63,115.13,441.46,119.81Z"/><ellipse class="cls-13" cx="519.23" cy="106.09" rx="12.87" ry="8.6" transform="translate(-10.53 91.78) rotate(-10)"/><path class="cls-4" d="M314,255c.06,59-25.5,85.72-55.35,89.88,0,0-33.1,7.21-48.15,4.75-10.2-1.65-19.47.76-26.8.7-10.77-.1-23.64,3-39.57,1.51-27-2.58-90.76-3-90.76-96.84a85.77,85.77,0,0,1,8.54-37.12c18.73-39.14,66.2-66.94,121.79-66.94A174.75,174.75,0,0,1,214,153.44C285.9,165.91,314,222.11,314,255Z"/><path class="cls-3" d="M312.14,241.73c0,70.24-68.35,86.62-159.94,65.62-81.71-18.74-39.1-132.76-7.45-146,24.46-10.22,19.23-4.05,69.22-7.92C272.36,163.75,312.14,225.88,312.14,241.73Z"/><path class="cls-18" d="M116,197.54l.27-13L105,172.37l11.24,12.12s19.36,4.21,18.18,25.12"/><path class="cls-2" d="M314,255c2.53,107.14-91.72,95.7-130.31,95.34S53.39,369.59,53.39,255a85.5,85.5,0,0,1,8.54-37.11c18.72-39.14,66.18-66.93,121.78-66.93C278.13,150.92,313.14,217.86,314,255Z"/><path class="cls-2" d="M158.42,350.6l24.29-37.22a4.86,4.86,0,0,1,8.38.41l31.41,60.3c.36.59,18.12,0,18.12,0"/><path class="cls-2" d="M248.27,345.74l24.29-37.22a4.86,4.86,0,0,1,8.38.41l31.4,60.3c.37.6,18.12,0,18.12,0"/><path class="cls-2" d="M95,230.83c.3,7.73-40.4,37.09,4.23,57a2.79,2.79,0,0,1,.85,4.52L94.36,298"/><path class="cls-17" d="M174.45,221a7.16,7.16,0,0,1,7.37-7.37c4.6,0,7.27,3.37,7.36,7.37"/><path class="cls-11" d="M248.15,228.44c0,11.17-9.05,18.76-20.22,18.76H221.5c-11.16,0-19.66-7.59-19.66-18.76v-5a2.75,2.75,0,0,1,2.74-2.75h40.83a2.75,2.75,0,0,1,2.74,2.75Z"/><path class="cls-19" d="M223.88,232.08A19.93,19.93,0,0,0,209,238.7c3.09,3.24,7.9,5.16,13.35,5.16h4.81a19.8,19.8,0,0,0,12.44-4.1A20,20,0,0,0,223.88,232.08Z"/><circle class="cls-11" cx="267.61" cy="218.15" r="7.92"/><ellipse class="cls-13" cx="179.87" cy="241.03" rx="9.95" ry="6.65"/><ellipse class="cls-13" cx="275.44" cy="241.03" rx="9.95" ry="6.65"/></g><g id="Text"><circle class="cls-11" cx="523.19" cy="547.77" r="9.64" transform="translate(-231.16 478.97) rotate(-41.1)"/><circle class="cls-11" cx="228.54" cy="547.77" r="9.64" transform="translate(-320.39 322.04) rotate(-45)"/><path class="cls-20" d="M27.67,580l-8.87-26.4H14.42V580H0V513.69H21.2q9.63,0,15,5t5.33,14.93a23.62,23.62,0,0,1-.84,6.56,18,18,0,0,1-2.2,5,13.82,13.82,0,0,1-3,3.37,11.83,11.83,0,0,1-3.26,1.87L43.44,580Zm-.89-45.5a10.23,10.23,0,0,0-.71-4.12,6.58,6.58,0,0,0-1.82-2.53,6.05,6.05,0,0,0-2.48-1.27,11.86,11.86,0,0,0-2.67-.32H14.42V543h4.4a8.34,8.34,0,0,0,5.57-2Q26.78,539,26.78,534.48Z"/><path class="cls-20" d="M98.87,546.65A54.27,54.27,0,0,1,97.09,561,34.47,34.47,0,0,1,92,572.11a23.23,23.23,0,0,1-8,7.12,23.58,23.58,0,0,1-21.25,0,23.17,23.17,0,0,1-8-7.12A34.25,34.25,0,0,1,49.72,561a59.34,59.34,0,0,1,0-28.65,33.24,33.24,0,0,1,5-11,23,23,0,0,1,8-7,24.21,24.21,0,0,1,21.35,0,23,23,0,0,1,8,7,34.13,34.13,0,0,1,5.06,11A53.21,53.21,0,0,1,98.87,546.65Zm-15.36,0a46.74,46.74,0,0,0-.65-8,26.22,26.22,0,0,0-1.92-6.41A11.89,11.89,0,0,0,77.8,528a6.7,6.7,0,0,0-4.4-1.55A6.86,6.86,0,0,0,69,528a11.64,11.64,0,0,0-3.19,4.26,25,25,0,0,0-1.87,6.41,49,49,0,0,0-.61,8,49.77,49.77,0,0,0,.61,8.05,25,25,0,0,0,1.87,6.46A12.11,12.11,0,0,0,69,565.47a6.74,6.74,0,0,0,4.44,1.59,6.58,6.58,0,0,0,4.4-1.59,12.38,12.38,0,0,0,3.14-4.31,26.11,26.11,0,0,0,1.92-6.46A47.47,47.47,0,0,0,83.51,546.65Z"/><path class="cls-20" d="M142.22,579.18A22,22,0,0,1,131,581.76a21.61,21.61,0,0,1-10.53-2.58,24.36,24.36,0,0,1-8.1-7.21,35.71,35.71,0,0,1-5.24-11.05,50,50,0,0,1-1.87-14.09,51,51,0,0,1,1.87-14.23,35.17,35.17,0,0,1,5.24-11.05,24.15,24.15,0,0,1,8.1-7.11A21.91,21.91,0,0,1,131,511.91a23.29,23.29,0,0,1,11.1,2.39,21.85,21.85,0,0,1,7.16,5.94l-8.05,10.86a14.07,14.07,0,0,0-3.79-3.55,9.81,9.81,0,0,0-5.29-1.31,8.65,8.65,0,0,0-5.2,1.59,13.16,13.16,0,0,0-3.74,4.35,22.23,22.23,0,0,0-2.3,6.55,41.75,41.75,0,0,0-.75,8.1,41,41,0,0,0,.75,8.06,22.86,22.86,0,0,0,2.3,6.55,12.85,12.85,0,0,0,3.79,4.4,8.83,8.83,0,0,0,5.24,1.59,9.19,9.19,0,0,0,5.24-1.5,11.93,11.93,0,0,0,3.56-3.55l8.34,10.39A22.51,22.51,0,0,1,142.22,579.18Z"/><path class="cls-20" d="M185.38,580l-14.14-30.81H171V580H155.89V513.69H171v27.62h.28l13.67-27.62h16.76l-17,30.34,18.07,36Z"/><path class="cls-14" d="M305,534.48a24.55,24.55,0,0,1-1.69,9.55,18.85,18.85,0,0,1-4.49,6.64,18.1,18.1,0,0,1-6.37,3.89,21.43,21.43,0,0,1-7.21,1.26h-6.46V580h-14.7V513.69h20.6a25.82,25.82,0,0,1,7.16,1,18.4,18.4,0,0,1,6.56,3.42,17.2,17.2,0,0,1,4.77,6.41A23.93,23.93,0,0,1,305,534.48Zm-14.05.28c0-3-.71-5.15-2.15-6.46a7.5,7.5,0,0,0-5.24-2h-4.78v17.32h4.78a6.91,6.91,0,0,0,5.24-2.29C290.28,539.83,291,537.63,291,534.76Z"/><path class="cls-14" d="M338.46,580l-2.71-12.08H320.86L318.15,580h-15l16.1-66.29h18.82l16,66.29Zm-9.92-51.87h-.38l-5.61,28.18h11.33Z"/><path class="cls-14" d="M400.82,534.48a24.55,24.55,0,0,1-1.69,9.55,18.85,18.85,0,0,1-4.49,6.64,18.1,18.1,0,0,1-6.37,3.89,21.43,21.43,0,0,1-7.21,1.26H374.6V580H359.9V513.69h20.6a25.82,25.82,0,0,1,7.16,1,18.4,18.4,0,0,1,6.56,3.42,17.2,17.2,0,0,1,4.77,6.41A23.93,23.93,0,0,1,400.82,534.48Zm-14,.28q0-4.5-2.16-6.46a7.48,7.48,0,0,0-5.24-2H374.6v17.32h4.78a6.9,6.9,0,0,0,5.24-2.29Q386.78,539.07,386.78,534.76Z"/><path class="cls-14" d="M408.78,580V513.69h32v13.2H423.1v13h16.29v12.35H423.1V566.5h18.82V580Z"/><path class="cls-14" d="M478.39,580l-8.86-26.4h-4.39V580H450.72V513.69h21.21q9.61,0,14.94,5t5.33,14.93a23.62,23.62,0,0,1-.84,6.56,18.29,18.29,0,0,1-2.19,5,14.06,14.06,0,0,1-3,3.37,11.83,11.83,0,0,1-3.26,1.87L494.16,580Zm-.89-45.5a10.42,10.42,0,0,0-.7-4.12,6.7,6.7,0,0,0-1.83-2.53,6.05,6.05,0,0,0-2.48-1.27,11.86,11.86,0,0,0-2.67-.32h-4.68V543h4.4a8.34,8.34,0,0,0,5.57-2Q477.5,539,477.5,534.48Z"/><path class="cls-6" d="M585,529.51a11.9,11.9,0,0,0-3.93-3,10.69,10.69,0,0,0-4.68-1.08,7.13,7.13,0,0,0-4.54,1.6q-2,1.59-2,5.25a6,6,0,0,0,2,4.83,33.79,33.79,0,0,0,6.09,3.8c1.51.75,3.09,1.64,4.76,2.67a21.63,21.63,0,0,1,4.57,3.8,19.22,19.22,0,0,1,3.44,5.39,18.64,18.64,0,0,1,1.37,7.46,24.4,24.4,0,0,1-1.7,9.42,19,19,0,0,1-4.57,6.75,19.27,19.27,0,0,1-6.63,4,22.93,22.93,0,0,1-7.79,1.36,25.9,25.9,0,0,1-10.91-2.25,26.87,26.87,0,0,1-7.91-5.24L560.26,563a17.36,17.36,0,0,0,5,3.61,13,13,0,0,0,5.71,1.35,6.4,6.4,0,0,0,4.59-1.78,7.3,7.3,0,0,0-.38-10.15A33.35,33.35,0,0,0,568.6,552a41.93,41.93,0,0,1-5.1-2.9,18.78,18.78,0,0,1-4.22-3.84,17,17,0,0,1-2.85-5.24,21.88,21.88,0,0,1-1-7.12,22.59,22.59,0,0,1,1.82-9.5,18.74,18.74,0,0,1,4.78-6.51,19.66,19.66,0,0,1,6.55-3.74,22.58,22.58,0,0,1,7.26-1.22,25.38,25.38,0,0,1,9.73,1.77,20.41,20.41,0,0,1,7.21,4.83Z"/><path class="cls-6" d="M635,579.18a22,22,0,0,1-11.24,2.58,21.61,21.61,0,0,1-10.53-2.58,24.36,24.36,0,0,1-8.1-7.21,35.71,35.71,0,0,1-5.24-11.05A50,50,0,0,1,598,546.83a51,51,0,0,1,1.87-14.23,35.17,35.17,0,0,1,5.24-11.05,24.15,24.15,0,0,1,8.1-7.11,21.91,21.91,0,0,1,10.53-2.53,23.29,23.29,0,0,1,11.1,2.39,21.85,21.85,0,0,1,7.16,5.94l-8,10.86a14.07,14.07,0,0,0-3.79-3.55,9.81,9.81,0,0,0-5.29-1.31,8.65,8.65,0,0,0-5.2,1.59,13.16,13.16,0,0,0-3.74,4.35,22.23,22.23,0,0,0-2.3,6.55,41.75,41.75,0,0,0-.75,8.1,41,41,0,0,0,.75,8.06,22.86,22.86,0,0,0,2.3,6.55,12.85,12.85,0,0,0,3.79,4.4,8.83,8.83,0,0,0,5.24,1.59,9.19,9.19,0,0,0,5.24-1.5,11.93,11.93,0,0,0,3.56-3.55l8.34,10.39A22.51,22.51,0,0,1,635,579.18Z"/><path class="cls-6" d="M648.65,580V513.69h15.07V580Z"/><path class="cls-6" d="M703,529.51a11.9,11.9,0,0,0-3.93-3,10.69,10.69,0,0,0-4.68-1.08,7.13,7.13,0,0,0-4.54,1.6q-2,1.59-2,5.25a6,6,0,0,0,2.07,4.83,33.29,33.29,0,0,0,6.08,3.8c1.51.75,3.09,1.64,4.76,2.67a21.89,21.89,0,0,1,4.57,3.8,19.22,19.22,0,0,1,3.44,5.39,18.64,18.64,0,0,1,1.37,7.46,24.4,24.4,0,0,1-1.7,9.42,19,19,0,0,1-4.57,6.75,19.18,19.18,0,0,1-6.63,4,22.93,22.93,0,0,1-7.79,1.36,25.87,25.87,0,0,1-10.91-2.25,26.87,26.87,0,0,1-7.91-5.24L678.24,563a17,17,0,0,0,5,3.61,13,13,0,0,0,5.71,1.35,6.4,6.4,0,0,0,4.59-1.78,7.3,7.3,0,0,0-.38-10.15,33.35,33.35,0,0,0-6.55-4.08,42.84,42.84,0,0,1-5.11-2.9,19,19,0,0,1-4.21-3.84A16.75,16.75,0,0,1,674.4,540a21.88,21.88,0,0,1-1-7.12,22.59,22.59,0,0,1,1.82-9.5,18.74,18.74,0,0,1,4.78-6.51,19.66,19.66,0,0,1,6.55-3.74,22.58,22.58,0,0,1,7.26-1.22,25.38,25.38,0,0,1,9.73,1.77,20.5,20.5,0,0,1,7.21,4.83Z"/><path class="cls-6" d="M746.12,529.51a12,12,0,0,0-3.94-3,10.69,10.69,0,0,0-4.68-1.08A7.15,7.15,0,0,0,733,527q-2,1.59-2,5.25a6,6,0,0,0,2.06,4.83,33.29,33.29,0,0,0,6.08,3.8q2.26,1.13,4.76,2.67a21.63,21.63,0,0,1,4.57,3.8,19,19,0,0,1,3.44,5.39,18.64,18.64,0,0,1,1.37,7.46,24.4,24.4,0,0,1-1.7,9.42,19,19,0,0,1-4.57,6.75,19.18,19.18,0,0,1-6.63,4,22.93,22.93,0,0,1-7.79,1.36,25.9,25.9,0,0,1-10.91-2.25,27,27,0,0,1-7.91-5.24L721.4,563a17.18,17.18,0,0,0,5,3.61,13.06,13.06,0,0,0,5.71,1.35,6.4,6.4,0,0,0,4.59-1.78,7.3,7.3,0,0,0-.38-10.15,33,33,0,0,0-6.55-4.08,41.93,41.93,0,0,1-5.1-2.9,19,19,0,0,1-4.22-3.84,17,17,0,0,1-2.85-5.24,21.88,21.88,0,0,1-1-7.12,22.74,22.74,0,0,1,1.82-9.5,18.74,18.74,0,0,1,4.78-6.51,19.66,19.66,0,0,1,6.55-3.74,22.58,22.58,0,0,1,7.26-1.22,25.46,25.46,0,0,1,9.74,1.77,20.59,20.59,0,0,1,7.21,4.83Z"/><path class="cls-6" d="M810.06,546.65A54.27,54.27,0,0,1,808.28,561a34.46,34.46,0,0,1-5,11.09,23.35,23.35,0,0,1-8,7.12,23.58,23.58,0,0,1-21.25,0,23.35,23.35,0,0,1-8-7.12A34.46,34.46,0,0,1,760.91,561a54.27,54.27,0,0,1-1.78-14.37,55,55,0,0,1,1.73-14.28,33.24,33.24,0,0,1,5-11,22.18,22.18,0,0,1,18.72-9.5,22.55,22.55,0,0,1,10.63,2.48,23.15,23.15,0,0,1,8,7,34.12,34.12,0,0,1,5,11A53.21,53.21,0,0,1,810.06,546.65Zm-15.35,0a45.72,45.72,0,0,0-.66-8,26.22,26.22,0,0,0-1.92-6.41A11.89,11.89,0,0,0,789,528a6.68,6.68,0,0,0-4.4-1.55,6.88,6.88,0,0,0-4.44,1.55,11.75,11.75,0,0,0-3.19,4.26,25,25,0,0,0-1.87,6.41,49,49,0,0,0-.61,8,49.77,49.77,0,0,0,.61,8.05,25,25,0,0,0,1.87,6.46,12.22,12.22,0,0,0,3.19,4.31,6.76,6.76,0,0,0,4.44,1.59,6.56,6.56,0,0,0,4.4-1.59,12.38,12.38,0,0,0,3.14-4.31,26.11,26.11,0,0,0,1.92-6.46A46.43,46.43,0,0,0,794.71,546.65Z"/><path class="cls-6" d="M846.81,580,838,553.58h-4.39V580H819.14V513.69h21.21q9.61,0,14.95,5t5.32,14.93a23.62,23.62,0,0,1-.84,6.56,18.29,18.29,0,0,1-2.19,5,14,14,0,0,1-3,3.37,11.88,11.88,0,0,1-3.27,1.87L862.59,580Zm-.89-45.5a10.24,10.24,0,0,0-.7-4.12,6.7,6.7,0,0,0-1.83-2.53,6,6,0,0,0-2.48-1.27,11.73,11.73,0,0,0-2.67-.32h-4.68V543H838a8.34,8.34,0,0,0,5.57-2C845.13,539.64,845.92,537.47,845.92,534.48Z"/><path class="cls-6" d="M897.23,529.51a12.11,12.11,0,0,0-3.93-3,10.7,10.7,0,0,0-4.69-1.08,7.15,7.15,0,0,0-4.54,1.6q-2,1.59-2,5.25a6,6,0,0,0,2.06,4.83,33.08,33.08,0,0,0,6.09,3.8q2.25,1.13,4.76,2.67a22.15,22.15,0,0,1,4.57,3.8,19.22,19.22,0,0,1,3.44,5.39,18.65,18.65,0,0,1,1.36,7.46,24.4,24.4,0,0,1-1.69,9.42,18.7,18.7,0,0,1-11.21,10.79,22.93,22.93,0,0,1-7.79,1.36,25.94,25.94,0,0,1-10.91-2.25,27.14,27.14,0,0,1-7.91-5.24L872.51,563a17.32,17.32,0,0,0,5,3.61,13.06,13.06,0,0,0,5.71,1.35,6.4,6.4,0,0,0,4.59-1.78,7.31,7.31,0,0,0-.37-10.15,33.47,33.47,0,0,0-6.56-4.08,41.93,41.93,0,0,1-5.1-2.9,18.73,18.73,0,0,1-4.21-3.84,17,17,0,0,1-2.86-5.24,21.88,21.88,0,0,1-1-7.12,22.58,22.58,0,0,1,1.83-9.5,18.85,18.85,0,0,1,4.77-6.51,19.7,19.7,0,0,1,6.56-3.74,22.56,22.56,0,0,1,7.25-1.22,25.43,25.43,0,0,1,9.74,1.77,20.59,20.59,0,0,1,7.21,4.83Z"/></g></g></svg>