<svg xmlns="http://www.w3.org/2000/svg" viewBox="0 0 222.75 309.11"><defs><style>.cls-1,.cls-5{fill:none;stroke:#333;stroke-linecap:round;stroke-linejoin:round;stroke-width:5.6px;}.cls-2{fill:#fbbc00;}.cls-3{fill:#fbd747;}.cls-4{fill:#fff09b;}.cls-5{fill-rule:evenodd;}.cls-6{fill:#ff7abe;}</style></defs><g id="Layer_2" data-name="Layer 2"><g id="Layer_1-2" data-name="Layer 1"><polyline class="cls-1" points="177.77 244.23 190.49 299.96 209.97 298.62"/><polyline class="cls-1" points="94.05 250.58 106.77 306.31 126.25 304.96"/><path class="cls-1" d="M30.56,97.87C33.73,115.33,23,129.46,15,138.19a14,14,0,0,0,2.74,21.18l20.05,11.39a5.59,5.59,0,0,1,.21,9.61l-8.84,5.54"/><path class="cls-2" d="M53.78,229.55l.16.94,1.49,8.4c2.64,15-6.64,29.17-20.73,31.66S7.09,262.88,4.45,247.88L2.8,238.54Z"/><path class="cls-3" d="M187.85,21.78S216.24,170.59,220,204.35c1.76,15.46-10.61,37.57-45,43l-6.34,1.11L111.4,258.54l-50.93,9L35,272c14.09-2.48,23.37-16.65,20.72-31.65l-2.4-13.62-.16-.94-2.24-12.68-2.39-13.57L23.21,56.19c-2-11.53,4.74-27.73,16.27-29.77L163.3,4.59A21.19,21.19,0,0,1,187.85,21.78Z"/><path class="cls-4" d="M81.51,221.7C44,191.62,26.88,43.73,30,33c3.2-11.05,54.45-14.46,54.45-14.46L136.8,9.26l33.52-3.7c4.45-.49,12,3.69,14,7.72L191.94,34l24.84,156.14C220.73,223.82,110.64,245,81.51,221.7Z"/><path class="cls-1" d="M174.82,245.84c34.35-5.38,46.72-27.5,45-43-3.81-33.76-32.2-182.57-32.2-182.57A21.18,21.18,0,0,0,163,3.13L39.22,25A21.2,21.2,0,0,0,22,49.51l26.2,148.58,2.39,13.56"/><polyline class="cls-1" points="50.62 211.65 52.86 224.33 53.02 225.27"/><path class="cls-1" d="M174.82,245.84,168.48,247l-57.34,10.11-50.93,9-25.51,4.5C20.66,273,8,268.1,5.37,253.1L2.8,238.54l51-9"/><path class="cls-1" d="M53,225.27l2.41,13.62c2.64,15-6.64,29.17-20.73,31.66"/><line class="cls-1" x1="74.15" y1="144.56" x2="189.96" y2="124.14"/><line class="cls-1" x1="77.41" y1="163.03" x2="193.22" y2="142.61"/><line class="cls-1" x1="80.66" y1="181.49" x2="196.47" y2="161.07"/><line class="cls-1" x1="83.92" y1="199.96" x2="199.73" y2="179.54"/><line class="cls-1" x1="105.1" y1="215.26" x2="185.06" y2="201.16"/><path class="cls-5" d="M149.58,63.29c-.74-4.79,1.77-9.49,7.34-10.47s9.52,2.51,10.48,7.33"/><path class="cls-5" d="M141,74c1.54,9.71-5.37,16.26-13.72,17.73s-17.11-2.43-19-12"/><path class="cls-5" d="M78.69,75.79C78,71,80.46,66.3,86,65.32s9.51,2.51,10.48,7.33"/><path class="cls-6" d="M93.93,93.2c.83,4.68-4.18,9.48-11.18,10.71s-13.35-1.55-14.18-6.23S72.76,88.2,79.76,87,93.11,88.52,93.93,93.2Z"/><ellipse class="cls-6" cx="171.71" cy="79.49" rx="12.87" ry="8.6" transform="translate(-11.19 31.02) rotate(-10)"/></g></g></svg>