<svg xmlns="http://www.w3.org/2000/svg" viewBox="0 0 282.67 229.04"><defs><style>.cls-1{fill:#acacac;}.cls-2{fill:#c8c8c8;}.cls-3,.cls-4,.cls-5{fill:none;stroke-linecap:round;stroke-linejoin:round;stroke-width:5.6px;}.cls-3{stroke:#949494;}.cls-4,.cls-5{stroke:#333;}.cls-5{fill-rule:evenodd;}.cls-6{fill:#333;}.cls-7{fill:#da325f;}.cls-8{fill:#ff7abe;}</style></defs><g id="Layer_2" data-name="Layer 2"><g id="Layer_1-2" data-name="Layer 1"><path class="cls-1" d="M263.42,106.85c.05,59-25.5,85.72-55.36,89.88,0,0-33.1,7.22-48.14,4.75-10.2-1.65-19.47.76-26.81.7-10.76-.1-23.63,3-39.56,1.51-27-2.58-90.76-2.95-90.76-96.84a85.66,85.66,0,0,1,8.54-37.12C30.06,30.59,77.53,2.8,133.11,2.8a174.82,174.82,0,0,1,30.27,2.52C235.31,17.79,263.39,74,263.42,106.85Z"/><path class="cls-2" d="M261.55,93.61c0,70.25-68.35,86.62-159.94,65.62C19.9,140.5,62.5,26.47,94.16,13.24,118.61,3,113.39,9.19,163.38,5.32,221.76,15.63,261.55,77.76,261.55,93.61Z"/><path class="cls-3" d="M65.38,49.42l.27-13L54.41,24.26,65.65,36.38S85,40.59,83.83,61.5"/><path class="cls-4" d="M263.42,106.85C266,214,171.71,202.54,133.11,202.18S2.8,221.47,2.8,106.85a85.65,85.65,0,0,1,8.53-37.12C30.06,30.6,77.52,2.8,133.11,2.8,227.54,2.8,262.55,69.74,263.42,106.85Z"/><path class="cls-4" d="M107.83,202.48l24.29-37.22a4.85,4.85,0,0,1,8.37.41L171.9,226c.37.59,18.12,0,18.12,0"/><path class="cls-4" d="M197.68,197.63,222,160.4a4.85,4.85,0,0,1,8.37.42l31.41,60.3c.37.59,18.12,0,18.12,0"/><path class="cls-4" d="M44.38,82.71c.31,7.73-40.39,37.09,4.23,57a2.8,2.8,0,0,1,.85,4.53l-5.69,5.65"/><path class="cls-5" d="M123.86,72.88a7.15,7.15,0,0,1,7.36-7.36c4.61,0,7.28,3.36,7.37,7.36"/><path class="cls-6" d="M197.55,80.32c0,11.17-9.05,18.77-20.22,18.77h-6.42c-11.17,0-19.67-7.6-19.67-18.77v-5A2.75,2.75,0,0,1,154,72.59h40.82a2.74,2.74,0,0,1,2.74,2.74Z"/><path class="cls-7" d="M173.29,84a20,20,0,0,0-14.86,6.63c3.09,3.23,7.91,5.15,13.36,5.15h4.8A19.8,19.8,0,0,0,189,91.64,20,20,0,0,0,173.29,84Z"/><circle class="cls-6" cx="217.02" cy="70.04" r="7.92"/><ellipse class="cls-8" cx="129.28" cy="92.91" rx="9.95" ry="6.65"/><ellipse class="cls-8" cx="224.84" cy="92.91" rx="9.95" ry="6.65"/></g></g></svg>