<svg xmlns="http://www.w3.org/2000/svg" viewBox="0 0 346.7 364.69"><defs><style>.cls-1,.cls-6{fill:none;stroke-linecap:round;stroke-linejoin:round;stroke-width:5.6px;}.cls-1{stroke:#333;}.cls-2{fill:#c8c8c8;}.cls-3{fill:#acacac;}.cls-4{fill:#ddd;}.cls-5{fill:#04cae4;}.cls-6{stroke:#00edff;}.cls-7{fill:#d6d6d6;}.cls-8{fill:#c2c2c2;}.cls-9{fill:#e6e6e6;}.cls-10,.cls-11{fill:#333;}.cls-11{fill-rule:evenodd;}.cls-12{fill:#ff7abe;}</style></defs><g id="Layer_2" data-name="Layer 2"><g id="Layer_1-2" data-name="Layer 1"><path class="cls-1" d="M183.24,320.55l-7.47,32.34,20-.39c6.86-.47,13.13,2.83,15.16,9.39"/><path class="cls-1" d="M48.57,211.59,18.19,225l-2.36-19.87a14.78,14.78,0,0,0-13-13"/><path class="cls-2" d="M215.67,142.82C205.25,147.4,166.51,168,155,163.12v0a4.81,4.81,0,0,1-2.74-2.66c-4.37-10.55,14.34-15.9,14.34-15.9S317.16,76.73,333.08,68.91c0,0,6.26-2.86,9.55,2.34,1.12,1.81,1.55,5.17,1.07,9.55-1.63,16.34-15.29,46.41-48.27,59.13C253.66,156,227.3,137.71,215.67,142.82Z"/><path class="cls-3" d="M215.67,142.82C205.25,147.4,166.51,168,155,163.12v0a2.92,2.92,0,0,1-.23-.54C151,151.78,170,147.49,170,147.49S314.1,134,340.48,81.38a10.27,10.27,0,0,1,3.22-.58c-1.63,16.34-15.29,46.41-48.27,59.13C253.66,156,227.3,137.71,215.67,142.82Z"/><path class="cls-4" d="M213,128.61l-2.5-3.29,125.25-59s5.41,1.21,4,2.36C312.71,90.44,213,128.61,213,128.61Z"/><path class="cls-1" d="M333.08,68.89c-15.92,7.84-166.48,75.64-166.48,75.64s-18.7,5.36-14.34,15.9c5.14,12.44,51.81-12.51,63.43-17.6s38,13.18,79.74-2.91S348,79.82,342.62,71.26C339.34,66.05,333.08,68.89,333.08,68.89Z"/><path class="cls-5" d="M155.59,172.39l19.92-9.07c5.44-2.49,8-9.45,5.81-15.55s-8.47-9-13.92-6.54l-23.06,10.52a56.42,56.42,0,1,0,11.25,20.64ZM84.91,215.7a31.92,31.92,0,1,1,43.7-11.3A31.91,31.91,0,0,1,84.91,215.7Z"/><path class="cls-1" d="M155.59,172.39l19.92-9.07c5.44-2.49,8-9.45,5.81-15.55s-8.47-9-13.92-6.54l-23.06,10.52a56.42,56.42,0,1,0,11.25,20.64Zm-70,42.16a30.59,30.59,0,1,1,41.88-10.83A30.59,30.59,0,0,1,85.59,214.55Z"/><path class="cls-6" d="M66,161.87a43.9,43.9,0,0,1,61.44-8.8"/><path class="cls-7" d="M216,143.07c-2.08,11.2-13.3,53.63-5.91,63.71h0a4.79,4.79,0,0,0,3.22,2.06c11.27,1.84,12.2-17.59,12.2-17.59S257.11,29.17,261.09,11.89c0,0,1.35-6.74-4.46-8.76-2-.68-5.39-.33-9.54,1.13-15.54,5.33-41.69,25.5-46.54,60.51C194.45,109.1,218.27,130.59,216,143.07Z"/><path class="cls-8" d="M216,143.07c-2.08,11.2-13.3,53.63-5.91,63.71h0a5,5,0,0,0,.58.1c11.35,1.21,11.19-18.24,11.19-18.24S187.38,44.05,247.26,7.54a10.49,10.49,0,0,0-.17-3.28c-15.54,5.33-41.69,25.5-46.54,60.51C194.45,109.1,218.27,130.59,216,143.07Z"/><path class="cls-9" d="M224,176.78l5.23,3.18L263,8.68s-2.42-5-3.21-3.33C244.78,36.64,224,176.78,224,176.78Z"/><path class="cls-1" d="M256.63,3.14c-9.57-3.29-49.94,17.29-56.07,61.62s17.7,65.84,15.38,78.3-15.94,63.61-2.65,65.77c11.25,1.84,12.2-17.59,12.2-17.59S257.11,29.18,261.11,11.89C261.11,11.89,262.44,5.15,256.63,3.14Z"/><path class="cls-5" d="M158.69,223.76a56.47,56.47,0,1,0,64.86-9.2l5-24.85c1.17-5.87-3.1-11.25-9.55-12.06s-12.63,3.35-13.81,9.2l-4.28,21.47A56.26,56.26,0,0,0,158.69,223.76Zm17.19,18.14a31.92,31.92,0,1,1-1,45.13A31.93,31.93,0,0,1,175.88,241.9Z"/><path class="cls-1" d="M158.69,223.76a56.47,56.47,0,1,0,64.86-9.2l5-24.85c1.17-5.87-3.1-11.25-9.55-12.06s-12.63,3.35-13.81,9.2l-4.28,21.47A56.26,56.26,0,0,0,158.69,223.76Zm18.11,19.1a30.59,30.59,0,1,1-1,43.25A30.6,30.6,0,0,1,176.8,242.86Z"/><path class="cls-6" d="M154.54,263.6a43.9,43.9,0,0,1,45.28-42.45"/><path class="cls-10" d="M301,105c2.89,6.31-.26,13-6.57,15.85l-3.63,1.66c-6.32,2.9-13.09.8-16-5.51l-1.29-2.82a1.7,1.7,0,0,1,.84-2.26l23.08-10.58a1.71,1.71,0,0,1,2.27.84Z"/><path class="cls-11" d="M311.56,93.14a4.14,4.14,0,1,1-5.48-2A4.13,4.13,0,0,1,311.56,93.14Z"/><path class="cls-11" d="M263.43,115.2a4.13,4.13,0,1,1-5.48-2A4.13,4.13,0,0,1,263.43,115.2Z"/><path class="cls-12" d="M269.78,127.94c1,2.08-.8,4.92-3.91,6.34s-6.4.89-7.35-1.18.8-4.92,3.91-6.34S268.82,125.86,269.78,127.94Z"/><path class="cls-12" d="M323.81,103.18c.95,2.07-.79,4.91-3.9,6.33s-6.4.9-7.35-1.18.8-4.91,3.9-6.34S322.86,101.1,323.81,103.18Z"/></g></g></svg>