<svg xmlns="http://www.w3.org/2000/svg" viewBox="0 0 390.41 390.41"><defs><style>.cls-1{fill:#faae40;}.cls-2{fill:#fff;}</style></defs><g id="Layer_2" data-name="Layer 2"><g id="Layer_1-2" data-name="Layer 1"><circle class="cls-1" cx="195.21" cy="195.21" r="195.21"/><path class="cls-2" d="M267,229.54a19.13,19.13,0,0,0-12.79,4.9l-10.51-11.61a52.3,52.3,0,0,0-14.53-77.09l12.65-22.49a14.26,14.26,0,1,0-4.59-2.64l-12.79,22.64a52.22,52.22,0,0,0-54,6l-11.78-14.92a20.4,20.4,0,0,0-15.91-33.2,20.44,20.44,0,1,0,12.06,36.92l11.6,14.68A52.1,52.1,0,0,0,150,190.71c0,.29,0,.54,0,.82H137.13a16.79,16.79,0,1,0,.6,4.9h12.62a52.35,52.35,0,0,0,33,43l-4.4,9a24.16,24.16,0,0,0-33,22.41,24.13,24.13,0,1,0,37.41-20.11l4.74-9.67A52.23,52.23,0,0,0,240.4,226.6l10.51,11.58a19.22,19.22,0,1,0,16-8.64Z"/></g></g></svg>